<svg width="259" height="274" viewBox="0 0 259 274" fill="none" xmlns="http://www.w3.org/2000/svg">
<path d="M196.312 174.161L205.179 156.626C230.252 107.044 205.538 46.7255 152.914 28.9007C123.897 19.0722 91.8509 24.4724 67.6763 43.2916C30.9835 71.8558 21.6857 123.467 46.1034 163.04L60.9915 187.169C63.021 192.255 60.9034 199.473 63.3011 207.298C74.0451 240.227 99.3297 258.911 128.147 268.653C135.45 271.121 143.524 270.293 149.786 265.797C176.972 246.281 202.846 205.103 196.312 174.161Z" fill="#F7CD98"/>
<path d="M188.613 123.18C201.361 97.6105 195.485 77.4913 186.588 61.6104C229.902 81.5385 212.925 149.105 196.505 173.932C199.218 184.363 197.088 195.121 196.495 200.915C189.454 228.317 156.152 263.945 146.274 268.297C138.883 271.552 124.657 268.071 119.9 264.332C128.74 260.412 161.098 230.805 162.189 195.353C162.892 185.76 159.959 183.539 163.388 177.223C178.283 149.789 178.918 145.449 179.439 131.644C179.567 128.248 184.826 124.48 188.613 123.18Z" fill="#C89C7C"/>
<path d="M196.312 174.161L205.179 156.626C230.252 107.044 205.538 46.7255 152.914 28.9007C123.897 19.0722 91.8509 24.4724 67.6763 43.2916C30.9835 71.8558 21.6857 123.467 46.1034 163.04L60.9915 187.169C63.021 192.255 60.9034 199.473 63.3011 207.298C74.0506 240.244 99.3554 258.931 128.191 268.668C135.468 271.125 143.53 270.323 149.783 265.864C161.084 257.808 170.752 246.814 178.294 235.948C200.69 202.578 197.696 194.606 196.312 174.161Z" stroke="black" stroke-width="2" stroke-linecap="round" stroke-linejoin="round"/>
<path d="M27.0393 149.754C23.0951 125.443 43.8929 110.587 62.0659 126.028L61.1915 178.885C53.6965 182.322 30.9834 174.065 27.0393 149.754Z" fill="#F7CD98"/>
<path d="M62.0659 126.028C43.4377 110.037 23.0951 125.442 27.0393 149.753C30.9834 174.064 53.6965 182.321 61.1915 178.885" stroke="black" stroke-width="2" stroke-linecap="round" stroke-linejoin="round"/>
<path d="M40.2865 142.455C42.3719 130.409 53.0165 133.647 55.3583 137.44C62.6483 145.697 53.8724 144.505 52.9405 150.268C52.0086 156.031 60.0413 160.756 54.9293 163.468C49.8172 166.181 37.6797 157.514 40.2865 142.455Z" fill="#C89C7C"/>
<path d="M128.437 209.955C125.686 212.328 120.891 214.429 119.4 214.604M169.91 225.08L171.036 230.587M174.662 225.035L176.004 230.004M133.977 214.431C132.162 216.182 128.914 218.614 125.718 219.502M139.899 217.837C139.899 217.837 136.822 221.787 134.95 223.032M145.152 219.784C144.559 223.442 143.221 226.443 143.221 226.443" stroke="black" stroke-width="2" stroke-linecap="round" stroke-linejoin="round"/>
<path d="M136.316 123.007C128.897 122.379 116.799 128.809 111.678 132.103C111.443 134.878 121.02 130.844 124.792 130.418C129.507 129.885 137.671 131.508 147.818 134.231C157.799 136.91 160.534 131.115 158.154 128.584C153.238 125.372 143.734 123.635 136.316 123.007Z" fill="black"/>
<path d="M190.01 147.836C186.14 145.143 187.63 139.218 188.858 136.593C192.659 133.709 206.654 147.131 210.916 151.325C214.326 154.68 209.765 155.847 207.058 156.011C202.988 154.408 193.88 150.529 190.01 147.836Z" fill="black"/>
<path d="M165.006 182.235C162.834 180.891 162.335 178.333 162.495 177.052L156.566 197.343C164.337 200.442 176.848 208.172 185.824 207.882C197.043 207.518 196.318 202.756 195.069 200.404C191.959 194.543 171.622 186.328 165.006 182.235Z" fill="#F7CD98"/>
<path d="M162.495 177.052C162.335 178.333 162.834 180.891 165.006 182.235C171.622 186.328 191.959 194.543 195.069 200.404C196.318 202.756 195.422 209.099 185.824 207.882C176.917 206.752 164.337 200.442 156.566 197.343" stroke="black" stroke-width="2" stroke-linecap="round" stroke-linejoin="round"/>
<path d="M106.123 209.112C104.54 210.652 102.712 214.669 108.059 218.41C113.406 222.152 126.178 229.537 131.896 232.761" stroke="black" stroke-width="2" stroke-linecap="round" stroke-linejoin="round"/>
<path d="M113.171 216.864C111.025 217.169 106.902 219.546 107.576 226.613" stroke="black" stroke-width="4" stroke-linecap="round" stroke-linejoin="round"/>
<path d="M106.602 244.07C105.181 246.894 102.097 251.402 99.0557 253.124M117.269 244.111C115.694 247.379 111.267 254.742 106.158 258.052M123.391 248.334C121.337 252.348 116.139 260.759 111.78 262.288M131.489 251.571C130.653 255.514 126.119 261.654 120.888 265.987M140 251.79C138.54 257.186 135.416 264.448 128.989 269.244M145.844 259.812C144.927 262.768 142.374 267.429 139.133 270.111" stroke="black" stroke-width="2" stroke-linecap="round" stroke-linejoin="round"/>
<path class="eyes" d="M189.344 169.841C188.4 172.701 186.656 174.953 184.078 174.163C181.494 173.507 181.286 170.989 182.23 168.129C183.174 165.269 184.613 163.339 187.496 163.807C190.638 164.748 190.288 166.982 189.344 169.841Z" fill="black"/>
<path class="eyes" d="M147.221 160.719C145.901 164.045 143.679 166.613 140.684 165.55C137.674 164.645 137.605 161.663 138.924 158.338C140.243 155.012 142.083 152.808 145.461 153.507C149.112 154.776 148.54 157.394 147.221 160.719Z" fill="black"/>
<path d="M37.341 44.8635C49.162 23.7843 83.1872 20.9754 94.8351 23.6656C118.915 -17.74 193.489 10.2563 191.086 12.9057C187.212 17.1775 183.509 19.4196 180.846 21.2385C208.962 21.064 227.034 32.8168 233.501 51.2536C238.675 66.0031 252.59 70.7593 258.901 71.2938C252.2 79.3131 243.504 77.3159 239.994 75.3149C252.583 87.83 247.289 99.7848 243.068 104.198L238.121 91.512C240.258 113.671 210.991 139.304 214.033 121.161C216.466 106.647 208.646 87.9936 204.431 80.481C204.088 84.5408 201.94 90.1516 200.909 92.4495C199.164 75.1282 187.017 70.8284 181.162 70.8436C185.037 86.7097 173.561 95.415 167.339 97.7844C173.731 69.7032 160.165 60.0357 152.583 58.7121C144.776 70.3178 143.745 89.9937 144.206 98.3809C126.195 88.2688 125.352 74.1247 127.182 68.3166C121.087 73.9338 124.624 86.6706 127.155 92.3368C114.312 87.5691 111.239 76.848 111.308 72.0834L105.398 76.6941C115.292 102.066 96.1958 114.249 98.1632 108.793C99.7371 104.428 98.7564 99.8134 98.0693 98.0515C96.1852 98.5734 90.5842 102.655 86.8586 111.924C77.3224 135.65 77.4418 152.016 73.2491 165.973C61.4982 162.524 64.0218 144.576 65.1504 137.175C52.4387 109.521 22.3212 127.415 27.1474 153.379C14.2431 139.495 18.55 122.23 21.3094 112.101C19.3836 118.737 15.7092 126.413 13.4745 113.376C11.0563 99.2693 19.6033 90.3841 24.179 87.7049C26.2324 81.2343 25.52 65.9427 37.341 44.8635Z" fill="black"/>
</svg>
