<svg width="252" height="275" viewBox="0 0 252 275" fill="none" xmlns="http://www.w3.org/2000/svg">
<path d="M202.891 159.91L207.72 140.863C221.376 87.0061 184.103 33.5298 128.858 27.611C98.396 24.3473 68.299 36.6064 48.8106 60.2449C19.2306 96.124 21.4125 148.52 53.8731 181.816L73.665 202.117C76.7549 206.638 76.2623 214.144 80.309 221.258C97.9758 251.051 126.727 263.771 156.975 266.993C164.64 267.81 172.339 265.24 177.47 259.487C199.745 234.511 216.016 188.682 202.891 159.91Z" fill="#F7CD98"/>
<path d="M185.553 111.922C192.931 84.3202 183.151 65.7824 171.257 52.0014C217.682 62.8656 214.558 132.462 203.435 160.071C208.179 169.749 208.242 180.716 208.82 186.511C207.401 214.768 181.896 256.336 173.087 262.574C166.497 267.242 151.862 266.677 146.453 263.964C154.331 258.355 180.115 222.876 174.095 187.922C172.866 178.382 169.548 176.792 171.645 169.918C180.752 140.06 180.508 135.68 178.257 122.05C177.703 118.697 182.102 113.953 185.553 111.922Z" fill="#C89C7C"/>
<path d="M202.891 159.91L207.72 140.863C221.376 87.0061 184.103 33.5298 128.858 27.611C98.396 24.3473 68.299 36.6064 48.8106 60.2449C19.2306 96.124 21.4125 148.52 53.8731 181.816L73.665 202.117C76.7549 206.638 76.2623 214.144 80.309 221.258C97.9848 251.066 126.756 263.784 157.021 266.998C164.659 267.809 172.352 265.268 177.482 259.553C186.754 249.226 193.792 236.388 198.782 224.139C213.361 186.688 208.701 179.561 202.891 159.91Z" stroke="black" stroke-width="2" stroke-linecap="round" stroke-linejoin="round"/>
<path d="M32.3701 173.007C23.2188 150.141 40.2762 131.107 61.3793 142.213L72.0535 193.988C65.4885 198.977 41.5213 195.872 32.3701 173.007Z" fill="#F7CD98"/>
<path d="M61.3793 142.213C39.7121 130.67 23.2188 150.141 32.37 173.006C41.5212 195.872 65.4884 198.977 72.0534 193.988" stroke="black" stroke-width="2" stroke-linecap="round" stroke-linejoin="round"/>
<path d="M43.7068 162.995C43.1148 150.784 54.2093 151.623 57.3221 154.814C66.2373 161.282 57.4126 162.032 57.7599 167.86C58.1073 173.687 66.9772 176.546 62.5798 180.309C58.1824 184.071 44.4468 178.259 43.7068 162.995Z" fill="#C89C7C"/>
<path d="M145.183 180.887C142.485 183.311 137.737 185.499 136.251 185.702M187.002 195.237L188.253 200.721M191.753 195.104L193.208 200.046M150.824 185.259C149.049 187.043 145.856 189.534 142.68 190.48M156.824 188.554C156.824 188.554 153.837 192.558 151.993 193.838M162.122 190.402C161.612 194.069 160.342 197.094 160.342 197.094" stroke="black" stroke-width="2" stroke-linecap="round" stroke-linejoin="round"/>
<path d="M116.723 106.945C109.706 109.449 101.344 120.461 98.041 125.654C98.9745 128.331 106.03 120.595 109.29 118.629C113.365 116.171 121.473 114.281 131.841 112.587C142.041 110.922 142.136 104.398 138.922 103.036C133.115 102.098 123.74 104.44 116.723 106.945Z" fill="black"/>
<path d="M184.106 111.074C179.557 109.786 178.977 103.59 179.256 100.654C181.874 96.6045 199.56 104.803 204.982 107.402C209.319 109.481 205.41 112.135 202.913 113.203C198.54 113.03 188.656 112.361 184.106 111.074Z" fill="black"/>
<path d="M171.273 150.157C168.719 150.166 166.942 148.26 166.4 147.087L172.107 167.443C180.34 165.96 195.047 165.899 202.509 160.902C211.836 154.657 208.701 151 206.397 149.665C200.657 146.338 179.053 150.128 171.273 150.157Z" fill="#F7CD98"/>
<path d="M166.4 147.087C166.942 148.26 168.719 150.166 171.273 150.157C179.053 150.128 200.657 146.338 206.397 149.665C208.701 151 211.297 156.856 202.509 160.902C194.353 164.657 180.34 165.96 172.107 167.443" stroke="black" stroke-width="2" stroke-linecap="round" stroke-linejoin="round"/>
<path d="M127.556 193.568C126.347 195.417 125.438 199.736 131.473 202.221C137.507 204.706 151.583 209.127 157.866 211.027" stroke="black" stroke-width="2" stroke-linecap="round" stroke-linejoin="round"/>
<path d="M136.125 199.597C134.097 200.362 130.592 203.581 132.79 210.331" stroke="black" stroke-width="4" stroke-linecap="round" stroke-linejoin="round"/>
<path d="M128.533 247.444C127.769 250.564 125.755 255.723 123.167 258.103M138.95 245.141C138.134 248.737 135.439 257.03 131.184 261.442M145.855 247.995C144.736 252.438 141.52 261.942 137.604 264.42M154.47 249.435C154.524 253.54 151.455 260.64 147.307 266.097M162.823 247.783C162.589 253.469 161.143 261.376 155.93 267.556M170.295 254.476C170.052 257.616 168.589 262.811 166.018 266.19" stroke="black" stroke-width="2" stroke-linecap="round" stroke-linejoin="round"/>
<path class="eyes" d="M191.009 129.46C191.514 133.345 191.019 136.909 188.347 137.268C185.733 137.79 184.361 134.893 183.856 131.008C183.351 127.123 183.726 124.096 186.518 123.199C189.764 122.735 190.504 125.575 191.009 129.46Z" fill="black"/>
<path class="eyes" d="M138.328 132.59C139.434 136.648 139.342 140.569 136.304 141.503C133.356 142.6 131.381 139.778 130.275 135.72C129.168 131.661 129.194 128.341 132.298 126.806C135.985 125.641 137.221 128.531 138.328 132.59Z" fill="black"/>
<path d="M19.5477 68.3947C26.4869 45.2449 59.0805 35.083 71.0347 35.1681C85.505 -10.4924 164.389 0.56616 162.622 3.67574C159.773 8.68974 156.649 11.6853 154.446 14.0412C181.847 7.7392 202.047 15.2677 212.38 31.8502C220.646 45.1163 235.263 46.7233 241.539 45.8686C236.748 55.1562 227.826 55.1036 223.964 53.9163C238.979 63.3847 236.419 76.2063 233.263 81.4336L225.668 70.1321C232.587 91.2915 209.614 122.69 208.626 104.321C207.836 89.6256 196.135 73.1266 190.384 66.714C190.934 70.7511 190.061 76.6952 189.556 79.1626C184.076 62.6388 171.284 61.0916 165.572 62.3834C172.814 77.0226 163.513 88.021 157.958 91.6904C158.072 62.891 142.724 56.4148 135.036 56.7767C129.948 69.8056 133.233 89.2327 135.512 97.3176C115.729 91.3769 111.822 77.7571 112.341 71.6897C107.617 78.5011 113.848 90.1597 117.553 95.1376C103.979 93.2857 98.6422 83.4929 97.6704 78.8279L92.9081 84.6165C108.097 107.219 92.118 123.274 92.8482 117.52C93.4323 112.918 91.4687 108.628 90.4139 107.058C88.689 107.978 84.113 113.183 82.4987 123.042C78.3665 148.277 82.0522 164.223 81.0042 178.757C68.7841 177.954 67.3326 159.888 66.8199 152.419C48.383 128.203 22.8931 152.234 33.2657 176.521C17.644 165.786 18.0819 147.997 18.5658 137.51C18.1336 144.406 16.2218 152.699 11.1977 140.463C5.76111 127.223 12.1645 116.688 16.0458 113.075C16.6386 106.313 12.6084 91.5445 19.5477 68.3947Z" fill="black"/>
</svg>
