<svg width="253" height="272" viewBox="0 0 253 272" fill="none" xmlns="http://www.w3.org/2000/svg">
<path d="M199.24 168.132L206.596 149.911C227.395 98.3903 197.68 40.3729 143.739 27.0524C113.996 19.7076 82.52 27.7927 60.0197 48.5848C25.8682 80.1435 20.9588 132.355 48.6289 169.727L65.5 192.513C67.9514 197.41 66.4504 204.78 69.5 212.376C82.9843 244.28 109.755 260.765 139.292 268.039C146.777 269.883 154.753 268.376 160.613 263.368C186.055 241.627 208.362 198.412 199.24 168.132Z" fill="#F7CD98"/>
<path d="M188.203 118.256C199.048 91.8229 191.716 72.1875 181.681 57C226.337 73.7063 214.347 142.334 199.787 168.295C203.256 178.5 201.918 189.385 201.751 195.206C196.733 223.05 166.126 261.019 156.593 266.081C149.46 269.869 135.018 267.438 130 264.056C138.53 259.5 168.635 227.606 167.13 192.169C167.13 182.55 164.042 180.55 167 174C179.847 145.55 180.164 141.175 179.674 127.369C179.553 123.972 184.522 119.83 188.203 118.256Z" fill="#C89C7C"/>
<path d="M199.24 168.132L206.596 149.911C227.395 98.3903 197.68 40.3729 143.739 27.0524C113.996 19.7076 82.52 27.7927 60.0197 48.5848C25.8682 80.1435 20.9588 132.355 48.6289 169.727L65.5 192.513C67.9514 197.41 66.4504 204.78 69.5 212.376C82.9912 244.296 109.783 260.781 139.338 268.051C146.795 269.885 154.761 268.405 160.616 263.435C171.197 254.453 179.903 242.683 186.5 231.219C206 196.078 202.345 188.388 199.24 168.132Z" stroke="black" stroke-width="2" stroke-linecap="round" stroke-linejoin="round"/>
<path d="M28.5115 158.096C22.5299 134.205 42 117.647 61.4112 131.5L65.0002 184.242C57.822 188.299 34.4931 181.988 28.5115 158.096Z" fill="#F7CD98"/>
<path d="M61.4111 131.5C41.5 117.138 22.5299 134.205 28.5115 158.096C34.4931 181.988 57.822 188.299 65.0002 184.242" stroke="black" stroke-width="2" stroke-linecap="round" stroke-linejoin="round"/>
<path d="M41.0957 149.706C42.1571 137.527 53.037 139.855 55.6906 143.438C63.6513 151.05 54.806 150.602 54.3638 156.423C53.9215 162.244 62.3243 166.274 57.4594 169.409C52.5945 172.543 39.7689 164.931 41.0957 149.706Z" fill="#C89C7C"/>
<path d="M132.438 191.955C129.686 194.328 124.891 196.429 123.401 196.604M173.91 207.08L175.037 212.587M178.662 207.035L180.004 212.004M137.977 196.431C136.162 198.182 132.914 200.614 129.718 201.502M143.899 199.837C143.899 199.837 140.823 203.787 138.95 205.032M149.152 201.784C148.56 205.442 147.222 208.443 147.222 208.443" stroke="black" stroke-width="2" stroke-linecap="round" stroke-linejoin="round"/>
<path d="M130.591 114.995C123.206 115.955 112.727 124.946 108.411 129.321C108.764 132.136 117.281 126.07 120.88 124.839C125.378 123.301 133.701 123.172 144.193 123.714C154.514 124.248 155.972 117.892 153.114 115.88C147.632 113.732 137.976 114.035 130.591 114.995Z" fill="black"/>
<path d="M188.407 134.138C184.099 132.187 184.446 125.974 185.158 123.112C188.348 119.498 204.62 130.24 209.596 133.618C213.576 136.32 209.316 138.363 206.689 139.046C202.39 138.223 192.715 136.089 188.407 134.138Z" fill="black"/>
<path d="M166.393 166.743C164.116 165.587 163.402 163.081 163.455 161.79L159.259 182.51C167.263 184.941 180.382 191.588 189.301 190.541C200.45 189.233 199.325 184.549 197.883 182.31C194.289 176.733 173.332 170.263 166.393 166.743Z" fill="#F7CD98"/>
<path d="M163.455 161.79C163.402 163.081 164.116 165.587 166.393 166.743C173.332 170.263 194.289 176.733 197.883 182.31C199.325 184.549 198.968 190.945 189.301 190.541C180.331 190.167 167.263 184.941 159.259 182.51" stroke="black" stroke-width="2" stroke-linecap="round" stroke-linejoin="round"/>
<path d="M109.323 196.543C107.876 198.212 106.393 202.368 112.036 205.645C117.68 208.922 131.03 215.203 137 217.933" stroke="black" stroke-width="2" stroke-linecap="round" stroke-linejoin="round"/>
<path d="M117 203.673C114.888 204.158 110.98 206.875 112.247 213.859" stroke="black" stroke-width="4" stroke-linecap="round" stroke-linejoin="round"/>
<path d="M119.069 244.545C117.892 247.534 115.199 252.374 112.314 254.383M129.702 243.67C128.408 247.122 124.618 254.976 119.807 258.774M136.158 247.43C134.45 251.68 129.98 260.664 125.766 262.591M144.5 250.019C144 254.093 140 260.714 135.154 265.562M153 249.51C152 255.112 149.5 262.751 143.501 268.171M159.5 257.149C158.836 260.228 156.685 265.178 153.681 268.179" stroke="black" stroke-width="2" stroke-linecap="round" stroke-linejoin="round"/>
<path class="eyes" d="M196.379 155.604C195.919 159.181 194.524 162.182 191.72 161.716C188.935 161.411 188.267 158.453 188.727 154.876C189.187 151.299 190.326 148.738 193.386 148.764C196.799 149.305 196.839 152.027 196.379 155.604Z" fill="black"/>
<path class="eyes" d="M142.52 145.764C141.757 149.964 139.924 153.43 136.641 152.716C133.371 152.193 132.764 148.657 133.528 144.457C134.291 140.257 135.794 137.296 139.407 137.505C143.404 138.343 143.284 141.563 142.52 145.764Z" fill="black"/>
<path d="M29.9253 52.7108C39.9253 30.7093 73.5922 25.0392 85.4255 26.7368C105.926 -16.5531 182.596 5.05038 180.425 7.89302C176.925 12.4766 173.425 15.0231 170.925 17.0602C198.925 14.5138 217.925 24.6997 225.925 42.5249C232.325 56.7852 246.592 60.3502 252.925 60.3502C246.925 68.9064 238.092 67.6501 234.425 65.9525C248.025 77.3607 243.759 89.7195 239.925 94.4729L233.925 82.2499C237.925 104.15 210.925 132.161 212.425 113.826C213.625 99.1584 204.259 81.2313 199.425 74.1012C199.425 78.1755 197.759 83.9475 196.925 86.3242C193.725 69.212 181.259 65.9525 175.425 66.4618C180.625 81.9443 169.925 91.5869 163.925 94.4729C167.925 65.9525 153.592 57.4642 145.925 56.7852C139.125 69.0082 139.759 88.7009 140.925 97.0194C122.125 88.4633 120.092 74.4407 121.425 68.4989C115.825 74.6105 120.425 87.0033 123.425 92.4358C110.225 88.7688 106.259 78.3453 105.925 73.5919L100.425 78.6848C112.425 103.131 94.4253 116.882 95.9253 111.28C97.1253 106.798 95.7586 102.282 94.9253 100.584C93.092 101.264 87.8554 105.803 84.9253 115.354C77.4253 139.8 78.9253 156.098 75.9253 170.358C63.9253 167.913 64.9253 149.816 65.4253 142.347C50.4253 115.863 21.9253 136.235 28.9253 161.7C14.8953 148.954 17.73 131.387 19.6247 121.061C18.2659 127.836 15.2523 135.795 11.9255 122.993C8.32549 109.141 16.0922 99.5659 20.4255 96.5101C21.9255 89.8893 19.9253 74.7123 29.9253 52.7108Z" fill="black"/>
</svg>
